<svg viewBox="0 0 32 32" xml:space="preserve" xmlns="http://www.w3.org/2000/svg" enable-background="new 0 0 32 32"><path d="M27 20.8v-1.5c.6 0 1-.4 1-1 0-4.6-3.7-8.3-8.3-8.3H17V7.7l5.3-1.8c.4-.1.7-.5.7-.9s-.3-.8-.7-.9l-6-2H16c-.1 0-.2 0-.3.1-.1 0-.1.1-.2.1l-.1.1h-.1c-.1.1-.1.2-.2.3v.1c-.1 0-.1.1-.1.2v7h-2.7c-2.2 0-4.3.9-5.9 2.4C4.9 14 4 16.1 4 18.3c0 .5.4 1 1 1v1.6c-.7.5-1 1.3-1 2.1 0 1.3.8 2.4 2 2.8v.7C6 28.4 7.6 30 9.5 30h13c1.9 0 3.5-1.6 3.5-3.5v-.7c.4-.1.8-.4 1.1-.7.6-.6.9-1.3.9-2.1 0-.9-.4-1.7-1-2.2zM17 5.6V4.4l1.8.6-1.8.6zm8 14v.9l-.3.1c-.5.2-1 .2-1.5 0l-.9-.4c-.2-.1-.5-.1-.8 0l-.9.4c-.5.2-1 .2-1.5 0l-.9-.4c-.2-.1-.5-.1-.8 0l-.9.4c-.5.2-1 .2-1.5 0l-.9-.4c-.2-.1-.5-.1-.8 0l-.9.4c-.5.2-1 .2-1.5 0l-.9-.4c-.2-.1-.5-.1-.8 0l-.9.4c-.5.2-1 .2-1.5 0l-.3-.1v-1.2H25v.3zM7.8 13.8C9 12.7 10.6 12 12.3 12h7.4c3.1 0 5.8 2.3 6.2 5.3H6.1c.2-1.3.8-2.5 1.7-3.5zM24 26.5c0 .8-.7 1.5-1.5 1.5h-13c-.8 0-1.5-.7-1.5-1.5V26h16v.5zm1.7-2.8c-.2.2-.4.3-.7.3H7c-.6 0-1-.4-1-1 0-.2.1-.4.2-.6l.3.1c.2.1.5.2.7.2h.2c.2 0 .4.1.5.1h.8c.3 0 .5-.1.7-.2l.5-.2.5.2c1 .4 2 .4 3 0l.5-.2.5.2c1 .4 2.1.4 3 0l.5-.2.5.2c1 .4 2 .4 3 0l.5-.2.5.2c1 .4 2 .4 3 0l.3-.1c.2.2.2.4.2.7.1.1 0 .3-.2.5z" fill="#ffffff" class="fill-000000"></path></svg>